<?xml version="1.0" standalone="no"?>
<svg xmlns="http://www.w3.org/2000/svg" viewBox="0 0 171 72" width="171" height="72"><g fill="#78487a" color="#78487a" transform="translate(66.456 0) scale(0.7407408) "><svg width="51.0" height="54.0" x="0.0" y="0.0" viewBox="0 0 51 54"><path fill="currentColor" fill-rule="evenodd" d="M28.58 14.169c5.536 1.088 7.414 1.494 7.385 1.577-.028.065 1.047 3.32 2.396 7.241 1.349 3.911 2.452 7.14 2.452 7.168 0 .036-.085.101-.179.147-.104.055-2.32 2.454-4.923 5.35-2.604 2.897-4.877 5.415-5.056 5.618-.245.258-.35.323-.406.24-.047-.074-3.084-.71-7.659-1.615l-7.574-1.494.02-.221c.018-.12-1.076-3.395-2.406-7.278-2.113-6.125-2.415-7.066-2.283-7.122.085-.027 2.443-2.592 5.226-5.682 5.055-5.599 5.074-5.617 5.32-5.507.141.065 3.593.775 7.687 1.578M22.175.129c-.028.074-.34 2.63-.679 5.692-.5 4.353-.66 5.571-.773 5.626-.076.047-4.707 1.098-10.281 2.343C4.867 15.036.245 16.087.17 16.124c-.075.046-.15.12-.17.175-.019.056 2.085 1.624 4.688 3.497 2.594 1.863 4.707 3.44 4.688 3.496-.16.396-6.197 19.721-6.197 19.823 0 .074.056.147.123.166.056.027 2.508-.978 5.442-2.242 2.933-1.254 5.357-2.26 5.386-2.223 1.264 1.365 14.299 15.045 14.403 15.119.094.065.207.083.264.046.056-.037.368-2.398.735-5.691.35-3.1.67-5.655.698-5.683.038-.027.66-.184 1.387-.34 3.207-.711 19.072-4.272 19.223-4.318a.241.241 0 0 0 .16-.212c0-.102-1.585-1.291-4.546-3.432-2.5-1.789-4.603-3.311-4.679-3.366-.103-.074.387-1.753 2.934-9.87 1.688-5.37 3.093-9.88 3.131-10.009.038-.166.02-.258-.075-.295-.076-.028-2.5.968-5.386 2.204-2.886 1.237-5.291 2.26-5.33 2.279-.046.01-3.065-3.118-6.705-6.946C22.514.074 22.439 0 22.317 0c-.047 0-.113.055-.142.13"></path></svg></g><path fill="#4ad040" fill-rule="nonzero" d="M5.62 19.30Q2.52 19.30 1.26 16.49Q0 13.68 0 9.58L0 9.58Q0 7.37 0.58 5.33Q1.15 3.29 2.44 1.96Q3.72 0.62 5.69 0.62L5.69 0.62Q7.20 0.62 8.34 1.56Q9.48 2.50 10.09 4.00Q10.70 5.50 10.70 7.13L10.70 7.13L7.30 7.30Q7.30 6.22 6.94 4.84Q6.58 3.46 5.50 3.46L5.50 3.46Q4.37 3.46 3.94 5.26Q3.50 7.06 3.50 9.58L3.50 9.58Q3.50 12.70 3.98 14.58Q4.46 16.46 5.83 16.46L5.83 16.46Q6.79 16.46 7.20 15.32Q7.61 14.18 7.73 12.55L7.73 12.55L10.73 12.84Q10.73 14.57 10.15 16.04Q9.58 17.52 8.42 18.41Q7.27 19.30 5.62 19.30L5.62 19.30ZM17.42 19.27Q15.00 19.27 13.69 17.35Q12.38 15.43 12.38 12.24L12.38 12.24Q12.38 9.07 13.68 7.18Q14.98 5.28 17.42 5.28L17.42 5.28Q19.85 5.28 21.18 7.18Q22.51 9.07 22.51 12.24L22.51 12.24Q22.51 15.41 21.18 17.34Q19.85 19.27 17.42 19.27L17.42 19.27ZM17.42 16.78Q18.50 16.78 18.82 15.46Q19.13 14.14 19.13 12.22L19.13 12.22Q19.13 10.30 18.82 8.98Q18.50 7.66 17.42 7.66L17.42 7.66Q16.34 7.66 16.06 8.90Q15.77 10.15 15.77 11.95L15.77 11.95Q15.77 14.16 16.06 15.47Q16.34 16.78 17.42 16.78L17.42 16.78ZM24.79 19.10L24.79 5.74L28.15 5.45L28.15 7.18Q29.18 6.26 30.18 5.77Q31.18 5.28 32.02 5.28L32.02 5.28Q33.29 5.28 34.09 6.20Q34.90 7.13 34.90 8.69L34.90 8.69L34.90 18.82L31.54 19.10L31.54 9.96Q31.54 8.16 30.31 8.16L30.31 8.16Q29.90 8.16 29.41 8.40Q28.92 8.64 28.15 9.10L28.15 9.10L28.15 18.82L24.79 19.10ZM42.02 19.27Q39.62 19.27 38.35 17.36Q37.08 15.46 37.08 12.29L37.08 12.29Q37.08 9.07 38.38 7.18Q39.67 5.28 42.14 5.28L42.14 5.28Q44.50 5.28 45.74 7.18Q46.99 9.07 46.99 12.29L46.99 12.29Q46.99 12.48 46.92 12.56Q46.85 12.65 46.85 12.67L46.85 12.67L40.44 12.67Q40.44 14.23 40.85 15.52Q41.26 16.80 42.10 16.80L42.10 16.80Q43.03 16.80 43.49 15.72Q43.94 14.64 43.97 14.59L43.97 14.59L46.51 15.55Q46.01 17.28 44.90 18.28Q43.80 19.27 42.02 19.27L42.02 19.27ZM40.44 10.73L43.68 10.73Q43.68 9.29 43.30 8.45Q42.91 7.61 42.10 7.61L42.10 7.61Q41.69 7.61 41.30 8.02Q40.92 8.42 40.68 9.14Q40.44 9.86 40.44 10.73L40.44 10.73ZM58.51 18.82L54.82 19.10L52.82 14.98L50.76 18.96L47.54 18.96L51.19 12.17L47.66 5.45L51.36 5.45L52.97 8.76L54.70 5.45L57.89 5.45L54.62 11.52L58.51 18.82ZM63.29 3.58L59.93 3.72L59.93 0.24L63.29 0L63.29 3.58ZM63.26 18.82L59.90 19.10L59.90 5.74L63.26 5.45L63.26 18.82ZM70.61 19.27Q68.18 19.27 66.88 17.35Q65.57 15.43 65.57 12.24L65.57 12.24Q65.57 9.07 66.86 7.18Q68.16 5.28 70.61 5.28L70.61 5.28Q73.03 5.28 74.36 7.18Q75.70 9.07 75.70 12.24L75.70 12.24Q75.70 15.41 74.36 17.34Q73.03 19.27 70.61 19.27L70.61 19.27ZM70.61 16.78Q71.69 16.78 72.00 15.46Q72.31 14.14 72.31 12.22L72.31 12.22Q72.31 10.30 72.00 8.98Q71.69 7.66 70.61 7.66L70.61 7.66Q69.53 7.66 69.24 8.90Q68.95 10.15 68.95 11.95L68.95 11.95Q68.95 14.16 69.24 15.47Q69.53 16.78 70.61 16.78L70.61 16.78ZM77.98 19.10L77.98 5.74L81.34 5.45L81.34 7.18Q82.37 6.26 83.36 5.77Q84.36 5.28 85.20 5.28L85.20 5.28Q86.47 5.28 87.28 6.20Q88.08 7.13 88.08 8.69L88.08 8.69L88.08 18.82L84.72 19.10L84.72 9.96Q84.72 8.16 83.50 8.16L83.50 8.16Q83.09 8.16 82.60 8.40Q82.10 8.64 81.34 9.10L81.34 9.10L81.34 18.82L77.98 19.10ZM106.03 18.96L96.98 18.96L96.98 0.96L106.13 0.96L105.84 3.77L100.51 3.77L100.51 8.06L104.30 8.06L104.28 11.09L100.51 11.09L100.51 16.15L106.32 16.15L106.03 18.96ZM112.39 19.27Q110.40 19.27 109.18 18.37Q107.95 17.47 107.59 15.86L107.59 15.86L110.21 15Q110.30 15.46 110.57 15.82L110.57 15.82Q111.12 16.61 112.18 16.61L112.18 16.61Q112.78 16.61 113.33 16.34Q113.88 16.08 113.88 15.53L113.88 15.53Q113.88 14.78 112.85 14.38L112.85 14.38L110.02 13.22Q108.89 12.74 108.29 11.78Q107.69 10.82 107.69 9.43L107.69 9.43Q107.69 8.14 108.32 7.20Q108.96 6.26 110.00 5.77Q111.05 5.28 112.25 5.28L112.25 5.28Q113.76 5.28 115.03 6.16Q116.30 7.03 116.74 8.54L116.74 8.54L113.95 9.41Q113.86 9 113.62 8.59L113.62 8.59Q113.09 7.78 112.27 7.78L112.27 7.78Q111.67 7.78 111.24 8.05Q110.81 8.33 110.81 8.86L110.81 8.86Q110.81 9.48 111.98 10.01L111.98 10.01L114.38 10.99Q115.66 11.59 116.38 12.50Q117.10 13.42 117.10 14.95L117.10 14.95Q117.10 16.34 116.42 17.32Q115.75 18.29 114.67 18.78Q113.59 19.27 112.39 19.27L112.39 19.27ZM119.18 23.16L119.18 5.74L122.54 5.45L122.54 6.77Q123.34 5.98 124.02 5.63Q124.70 5.28 125.62 5.28L125.62 5.28Q126.86 5.28 127.60 5.98Q128.33 6.67 128.65 8.15Q128.98 9.62 128.98 12.10L128.98 12.10Q128.98 15.48 128.20 17.38Q127.42 19.27 125.21 19.27L125.21 19.27Q124.20 19.27 123.60 18.89Q123 18.50 122.54 17.81L122.54 17.81L122.54 22.49L119.18 23.16ZM124.01 16.70Q124.80 16.70 125.20 15.77Q125.59 14.83 125.59 12.24L125.59 12.24Q125.59 9.77 125.20 8.74Q124.80 7.70 123.98 7.70L123.98 7.70Q123.14 7.70 122.54 8.64L122.54 8.64L122.54 15.62Q123.02 16.70 124.01 16.70L124.01 16.70ZM133.51 19.27Q132.65 19.27 131.95 18.73Q131.26 18.19 130.87 17.27Q130.49 16.34 130.49 15.19L130.49 15.19Q130.49 12.58 132.28 11.51Q134.06 10.44 136.44 10.30L136.44 10.30Q136.44 9 136.27 8.38Q136.10 7.75 135.46 7.75L135.46 7.75Q134.90 7.75 134.62 8.18Q134.33 8.62 134.26 9.29L134.26 9.29L130.97 8.71Q131.21 6.86 132.48 6.07Q133.75 5.28 135.46 5.28L135.46 5.28Q137.64 5.28 138.73 6.43Q139.82 7.58 139.82 9.43L139.82 9.43L139.82 16.42Q139.82 17.54 140.18 18.82L140.18 18.82L136.90 19.10L136.51 17.45Q136.08 18.22 135.24 18.74Q134.40 19.27 133.51 19.27L133.51 19.27ZM135.07 16.87Q135.48 16.87 135.76 16.68Q136.03 16.49 136.44 16.06L136.44 16.06L136.44 12.31Q135.24 12.31 134.52 12.96Q133.80 13.61 133.80 14.98L133.80 14.98Q133.80 15.89 134.12 16.38Q134.45 16.87 135.07 16.87L135.07 16.87ZM142.61 19.10L142.61 5.74L145.97 5.45L145.97 7.18Q147 6.26 148.00 5.77Q148.99 5.28 149.83 5.28L149.83 5.28Q151.10 5.28 151.91 6.20Q152.71 7.13 152.71 8.69L152.71 8.69L152.71 18.82L149.35 19.10L149.35 9.96Q149.35 8.16 148.13 8.16L148.13 8.16Q147.72 8.16 147.23 8.40Q146.74 8.64 145.97 9.10L145.97 9.10L145.97 18.82L142.61 19.10ZM149.16 4.54Q148.78 4.54 148.46 4.39Q148.15 4.25 147.65 3.96L147.65 3.96Q147.19 3.65 146.86 3.50Q146.52 3.36 146.11 3.36L146.11 3.36Q145.13 3.36 144.07 4.54L144.07 4.54L143.90 2.38Q144.50 1.73 145.06 1.34Q145.61 0.96 146.26 0.96L146.26 0.96Q146.59 0.96 146.89 1.07Q147.19 1.18 147.70 1.42L147.70 1.42Q148.15 1.66 148.48 1.78Q148.80 1.90 149.16 1.90L149.16 1.90Q149.69 1.90 150.16 1.61Q150.62 1.32 150.84 0.96L150.84 0.96L151.37 2.86Q151.37 2.93 151.06 3.36Q150.74 3.79 150.25 4.16Q149.76 4.54 149.16 4.54L149.16 4.54ZM159.94 19.27Q157.51 19.27 156.20 17.35Q154.90 15.43 154.90 12.24L154.90 12.24Q154.90 9.07 156.19 7.18Q157.49 5.28 159.94 5.28L159.94 5.28Q162.36 5.28 163.69 7.18Q165.02 9.07 165.02 12.24L165.02 12.24Q165.02 15.41 163.69 17.34Q162.36 19.27 159.94 19.27L159.94 19.27ZM159.94 16.78Q161.02 16.78 161.33 15.46Q161.64 14.14 161.64 12.22L161.64 12.22Q161.64 10.30 161.33 8.98Q161.02 7.66 159.94 7.66L159.94 7.66Q158.86 7.66 158.57 8.90Q158.28 10.15 158.28 11.95L158.28 11.95Q158.28 14.16 158.57 15.47Q158.86 16.78 159.94 16.78L159.94 16.78ZM170.69 18.82L167.33 19.10L167.33 1.39L170.69 0.96L170.69 18.82Z" transform="translate(0, 48)"></path></svg>